<?xml version="1.0" encoding="utf-8"?>
<!-- Generator: Adobe Illustrator 23.0.5, SVG Export Plug-In . SVG Version: 6.00 Build 0)  -->
<svg version="1.1" id="Layer_1" xmlns="http://www.w3.org/2000/svg" xmlns:xlink="http://www.w3.org/1999/xlink" x="0px" y="0px"
	 viewBox="0 0 3355.9 1190.55" style="enable-background:new 0 0 3355.9 1190.55;" xml:space="preserve">
<style type="text/css">
	.st0{clip-path:url(#SVGID_2_);fill:#D8117C;}
	.st1{clip-path:url(#SVGID_2_);fill:#FDB913;}
	.st2{clip-path:url(#SVGID_2_);fill:#414042;}
</style>
<g>
	<defs>
		<rect id="SVGID_1_" y="0" width="3355.9" height="1190.55"/>
	</defs>
	<clipPath id="SVGID_2_">
		<use xlink:href="#SVGID_1_"  style="overflow:visible;"/>
	</clipPath>
	<path class="st0" d="M307.21,567.46c0-7.79-6.34-14.18-14.19-14.18c-7.84,0-14.17,6.4-14.17,14.18c0,7.79,6.33,14.15,14.17,14.15
		C300.88,581.62,307.21,575.25,307.21,567.46"/>
	<path class="st0" d="M546.43,234.97V588.4c0,56.24-13.7,150.94-105.76,153.44c-36.37,0.88-71.21-12.27-95.83-36.4
		c-25.66-25.17-39.13-60.38-38.77-101.76c0.08-5.97-4.75-10.85-10.72-10.85h-0.02c-5.9,0-10.71,4.76-10.73,10.64
		c-0.38,47.39,15.3,87.93,45.19,117.32c27.75,27.2,62.75,39.91,103.17,43.24c8.34,0.73,19.27,0.67,20.65,0.61
		c15.16-0.43,48.86-1.94,61.41-6.55c12.75-4.67-8.1-13.8,1.88-22.5c33.08-28.82,51.1-79.18,51.1-147.2V256.43h42.56v-21.46H546.43z"
		/>
	<path class="st1" d="M335.12,538.27c7.88,0,14.19-6.34,14.19-14.18c0-7.72-6.32-14.12-14.19-14.12c-7.8,0-14.16,6.4-14.16,14.12
		C320.97,531.93,327.32,538.27,335.12,538.27"/>
	<path class="st1" d="M588.07,285.91V577.8c0,25.94-2.85,63.57-16.46,96.08c-17.22,41.21-47.24,62.67-89.32,63.75
		c-27.97,0.76-67.44-4.47-96.57-33.83c-29.21-29.42-42.9-77.26-40.72-142.11c0.18-5.89-4.43-10.87-10.36-11.07
		c-5.98-0.21-10.91,4.44-11.09,10.39c-2.43,70.98,13.37,124.1,46.89,157.94c26.24,26.43,63.03,40.31,106.74,40.31
		c1.88,0,22.93,2.3,52.85-2.38c9.58-1.49,24.58-3.59,35.95-9.58c7.12-3.75-3.83-14.34,2.83-23.64c7.72-10.69,15.48-24.36,22.6-41.5
		c15-35.81,18.18-76.51,18.18-104.35V285.91H588.07z"/>
	<path class="st0" d="M381.23,581.37c7.6,0,13.85-6.19,13.85-13.86c0-7.54-6.26-13.82-13.85-13.82c-7.66,0-13.87,6.28-13.87,13.82
		C367.36,575.17,373.58,581.37,381.23,581.37"/>
	<path class="st0" d="M629.45,192.98v381.78c0,41.38,0,138.26-98.86,157.7c-24.66,4.91-64.98,1.16-97.23-25.43
		c-28.41-23.43-43.39-59.69-43.29-104.88c0-5.98-4.81-10.78-10.7-10.79h-0.04c-5.93,0-10.77,4.75-10.77,10.69
		c-0.16,65.52,27.73,102.27,51.12,121.57c29.03,23.88,63.67,32.14,91.48,32.14c8.64,0,37.77-3.07,44.77-4.41
		c34.6-6.84,37.73-19.45,54.83-38.05c40.18-43.87,40.18-108.59,40.18-138.54V214.46h39.49v-21.48H629.45z"/>
	<path class="st1" d="M425.68,603.76c7.68,0,13.87-6.21,13.87-13.85c0-7.59-6.2-13.79-13.87-13.79c-7.64,0-13.85,6.2-13.85,13.79
		C411.83,597.55,418.04,603.76,425.68,603.76"/>
	<path class="st1" d="M692.22,240.38l-21.45,0.06l0.2,158.96v166.26c0,89.89-33.5,142.79-102.49,161.77
		c-24.24,6.69-64.7,1.18-95.17-22.26c-17.4-13.33-38.03-37.9-37.63-78.59c0.02-5.93-4.75-10.85-10.64-10.89h-0.12
		c-5.85,0-10.67,4.75-10.75,10.65c-0.46,49.56,24.76,79.46,46.01,95.85c24.42,18.77,57.02,29.46,86.55,29.46
		c9.6,0,18.91-1.11,27.43-3.52c78.51-21.6,118.29-82.97,118.29-182.47V399.41L692.22,240.38z"/>
	<path class="st0" d="M809.73,391.23l35.2-26.01c9.95,18.21,23.36,26.26,37.67,26.26c22.25,0,33.99-11.75,33.99-46.95V176.2h51.46
		v172.68c0,47.88-24.2,87.16-79,87.16C851.69,436.04,826.69,421.08,809.73,391.23"/>
	<path class="st0" d="M1015.35,378.67c0-40.98,33.29-62.75,111.02-71.01c-0.89-18.8-9.26-32.93-32.76-32.93
		c-17.67,0-34.77,7.72-52.62,18.21l-18.49-33.87c22.86-14.16,50.32-25.34,80.8-25.34c48.78,0,74.31,28.93,74.31,85.37v112.25h-41.88
		l-3.79-20.56h-1.34c-16.76,14.52-35.76,25.25-57.98,25.25C1038.13,436.04,1015.35,411.73,1015.35,378.67 M1126.37,377.47v-38.51
		c-46.45,6.04-61.79,18.68-61.79,35.7c0,14.73,10.08,21.5,24.96,21.5C1103.86,396.16,1114.16,389.11,1126.37,377.47"/>
	<path class="st0" d="M1228.83,238.42h41.88l3.79,25.25h1.34c16.76-16.2,36.3-29.94,62.65-29.94c41.64,0,59.62,28.79,59.62,77.25
		v120.37h-51.24V317.55c0-29.74-8.28-40.05-26.97-40.05c-15.66,0-25.62,7.5-39.83,21.38v132.46h-51.23V238.42z"/>
	<path class="st0" d="M1440.37,378.67c0-40.98,33.29-62.75,111.02-71.01c-0.89-18.8-9.26-32.93-32.76-32.93
		c-17.67,0-34.77,7.72-52.62,18.21l-18.49-33.87c22.86-14.16,50.32-25.34,80.8-25.34c48.78,0,74.31,28.93,74.31,85.37v112.25h-41.88
		l-3.79-20.56h-1.34c-16.76,14.52-35.76,25.25-57.98,25.25C1463.16,436.04,1440.37,411.73,1440.37,378.67 M1551.4,377.47v-38.51
		c-46.45,6.04-61.79,18.68-61.79,35.7c0,14.73,10.08,21.5,24.96,21.5C1528.88,396.16,1539.18,389.11,1551.4,377.47"/>
	<path class="st0" d="M1725.81,398.9l29.74-35.31c18.2,16.6,42.22,27.89,64.58,27.89c26.4,0,40.17-11.26,40.17-28.78
		c0-18.53-15.49-24.46-38.22-33.96l-34.01-14.64c-25.78-10.6-51.54-31.41-51.54-68.6c0-41.47,36.83-73.99,88.28-73.99
		c29.59,0,59.39,11.96,80.36,32.99l-26.18,32.53c-16.53-13.35-33.17-20.96-54.18-20.96c-22.04,0-36.26,9.8-36.26,26.43
		c0,17.85,18.06,24.41,39.77,33.17l33.46,13.81c30.76,12.62,51.09,32.59,51.09,69.11c0,41.86-34.83,77.46-93.86,77.46
		C1785.17,436.04,1750.92,422.96,1725.81,398.9"/>
	<path class="st0" d="M1953.48,238.42h41.88l3.79,25.53h1.34c16.08-16.48,34.07-30.22,58.85-30.22c27.7,0,43.95,12.29,53.26,33.52
		c17.71-18.67,36.31-33.52,61.31-33.52c41.19,0,59.95,28.79,59.95,77.25v120.37h-51.24V317.55c0-29.74-8.5-40.05-26.74-40.05
		c-10.97,0-23.05,6.94-36.59,21.38v132.46h-51.24V317.55c0-29.74-8.5-40.05-26.74-40.05c-10.74,0-23.05,6.94-36.59,21.38v132.46
		h-51.23V238.42z"/>
	<path class="st0" d="M2276.13,378.67c0-40.98,33.29-62.75,111.03-71.01c-0.89-18.8-9.26-32.93-32.76-32.93
		c-17.67,0-34.77,7.72-52.62,18.21l-18.49-33.87c22.86-14.16,50.32-25.34,80.8-25.34c48.78,0,74.31,28.93,74.31,85.37v112.25h-41.88
		l-3.79-20.56h-1.34c-16.75,14.52-35.75,25.25-57.98,25.25C2298.91,436.04,2276.13,411.73,2276.13,378.67 M2387.15,377.47v-38.51
		c-46.45,6.04-61.79,18.68-61.79,35.7c0,14.73,10.08,21.5,24.96,21.5C2364.64,396.16,2374.94,389.11,2387.15,377.47"/>
	<path class="st0" d="M2489.6,376.52v-220.1h51.23v222.45c0,11.71,5.35,15.62,10.04,15.62c2.12,0,3.68,0,7.03-0.78l6.24,37.99
		c-5.91,2.45-14.38,4.34-26.3,4.34C2502.2,436.04,2489.6,412.86,2489.6,376.52"/>
	<path class="st0" d="M2598.41,376.52v-220.1h51.23v222.45c0,11.71,5.35,15.62,10.04,15.62c2.12,0,3.68,0,7.03-0.78l6.24,37.99
		c-5.9,2.45-14.37,4.34-26.3,4.34C2611.01,436.04,2598.41,412.86,2598.41,376.52"/>
	<polygon class="st0" points="809.73,522.81 967.33,522.81 967.33,566.03 861.19,566.03 861.19,631.83 951.68,631.83 951.68,675.04 
		861.19,675.04 861.19,777.96 809.73,777.96 	"/>
	<path class="st0" d="M997.78,526.3c0-16.39,12.93-27.76,30.54-27.76s30.54,11.37,30.54,27.76c0,16.16-12.93,27.75-30.54,27.75
		S997.78,542.46,997.78,526.3 M1002.59,585.03h51.24v192.93h-51.24V585.03z"/>
	<path class="st0" d="M1102.85,585.03h41.88l3.79,25.25h1.34c16.76-16.2,36.3-29.94,62.65-29.94c41.64,0,59.62,28.79,59.62,77.25
		v120.37h-51.24V664.16c0-29.74-8.28-40.05-26.97-40.05c-15.66,0-25.62,7.5-39.83,21.38v132.46h-51.23V585.03z"/>
	<path class="st0" d="M1314.4,725.28c0-40.98,33.29-62.75,111.02-71.02c-0.89-18.8-9.26-32.93-32.76-32.93
		c-17.67,0-34.77,7.72-52.62,18.21l-18.49-33.87c22.86-14.16,50.32-25.34,80.8-25.34c48.78,0,74.31,28.93,74.31,85.37v112.25h-41.88
		l-3.79-20.56h-1.34c-16.76,14.52-35.76,25.25-57.98,25.25C1337.18,782.65,1314.4,758.34,1314.4,725.28 M1425.43,724.08v-38.51
		c-46.45,6.04-61.79,18.68-61.79,35.7c0,14.73,10.08,21.5,24.96,21.5C1402.91,742.77,1413.21,735.72,1425.43,724.08"/>
	<path class="st0" d="M1527.88,585.03h41.88l3.79,25.25h1.34c16.76-16.2,36.3-29.94,62.65-29.94c41.64,0,59.61,28.79,59.61,77.25
		v120.37h-51.23V664.16c0-29.74-8.28-40.05-26.97-40.05c-15.65,0-25.62,7.5-39.83,21.38v132.46h-51.23V585.03z"/>
	<path class="st0" d="M1737.07,681.61c0-64.2,46.32-101.27,98.66-101.27c24.13,0,42.2,8.94,56.38,21.22l-24.51,33.08
		c-9.72-8.39-18.46-12.76-29.09-12.76c-29.29,0-48.87,23.71-48.87,59.72c0,36,19.79,59.49,47.2,59.49
		c13.87,0,26.83-6.82,37.34-15.43l20.39,33.64c-18.42,16.29-41.85,23.34-63.3,23.34C1778.04,782.65,1737.07,745.58,1737.07,681.61"
		/>
	<path class="st0" d="M1909.52,681.61c0-62.64,44.09-101.27,89.96-101.27c53.56,0,80.92,38.83,80.92,92.1
		c0,9.47-1.12,18.95-2.18,23.64h-118.92c4.45,31.1,25.02,47.25,53.44,47.25c15.54,0,29.17-4.81,43.24-13.3l17.16,31.31
		c-19.08,13.05-43.61,21.32-67.3,21.32C1951.72,782.65,1909.52,745.36,1909.52,681.61 M2036.41,661.76
		c0-25.43-11.21-42.09-35.81-42.09c-20.26,0-37.94,14.45-41.84,42.09H2036.41z"/>
	<path class="st0" d="M2216.21,527.5h84.47c52.7,0,92.54,15.31,92.54,63.08c0,23.46-12.95,47.35-34.52,55.16v1.57
		c27.16,6.58,47.6,26.02,47.6,60.3c0,51.47-42.85,75.03-98.69,75.03h-91.39V527.5z M2297.31,631.27c31.79,0,45.55-12.86,45.55-33.22
		c0-22.16-14.89-30.66-44.88-30.66h-30.32v63.89H2297.31z M2302.9,742.77c34.45,0,53.04-12.3,53.04-38.27
		c0-24.61-18.14-35.02-53.04-35.02h-35.24v73.29H2302.9z"/>
	<path class="st0" d="M2437.16,725.28c0-40.99,33.29-62.75,111.02-71.02c-0.89-18.8-9.26-32.93-32.76-32.93
		c-17.67,0-34.77,7.72-52.62,18.21l-18.49-33.86c22.86-14.16,50.32-25.34,80.8-25.34c48.78,0,74.31,28.93,74.31,85.37v112.24h-41.88
		l-3.79-20.56h-1.34c-16.75,14.52-35.75,25.25-57.98,25.25C2459.94,782.65,2437.16,758.34,2437.16,725.28 M2548.19,724.08v-38.51
		c-46.45,6.04-61.79,18.67-61.79,35.7c0,14.73,10.08,21.5,24.96,21.5C2525.67,742.77,2535.97,735.72,2548.19,724.08"/>
	<path class="st0" d="M2650.63,589.73h41.88l3.79,25.25h1.34c16.76-16.2,36.3-29.94,62.65-29.94c41.64,0,59.62,28.79,59.62,77.25
		v120.36h-51.24v-113.8c0-29.74-8.28-40.04-26.96-40.04c-15.66,0-25.62,7.5-39.84,21.38v132.46h-51.23V589.73z"/>
	<polygon class="st0" points="2871.8,507.73 2921.92,507.73 2921.92,672.36 2923.26,672.36 2989.57,589.73 3045.38,589.73 
		2978.52,668.76 3051.31,782.65 2995.73,782.65 2949.22,703.18 2921.92,734.4 2921.92,782.65 2871.8,782.65 	"/>
	<path class="st2" d="M824.84,907.65h17.94l28.09,86.25h-16.09l-6.73-23.34h-29.01l-6.73,23.34h-15.56L824.84,907.65z M822.6,958.56
		h22.02l-3.03-10.55c-2.77-9.1-5.28-18.99-7.78-28.49h-0.53c-2.37,9.63-4.88,19.39-7.65,28.49L822.6,958.56z"/>
	<path class="st2" d="M928.37,982.83l8.97-10.42c6.2,5.8,14.51,9.76,22.42,9.76c9.76,0,15.03-4.35,15.03-11.08
		c0-7.12-5.54-9.36-13.32-12.66l-11.87-5.14c-8.44-3.56-17.41-10.29-17.41-22.95c0-13.72,12.13-24.27,29.01-24.27
		c10.02,0,19.78,4.22,26.51,10.95l-7.78,9.76c-5.54-4.62-11.34-7.39-18.73-7.39c-8.18,0-13.58,3.83-13.58,10.16
		c0,6.73,6.59,9.23,13.72,12.13l11.74,4.88c10.15,4.35,17.41,10.82,17.41,23.34c0,13.98-11.6,25.59-30.99,25.59
		C947.89,995.49,936.55,990.87,928.37,982.83"/>
	<path class="st2" d="M1014.89,951.04c0-28.22,17.67-44.97,39.43-44.97c10.81,0,19.52,5.14,24.93,10.95l-8.18,9.89
		c-4.48-4.48-9.63-7.52-16.35-7.52c-14.11,0-24.13,11.87-24.13,31.26c0,19.65,9.23,31.52,23.74,31.52c7.65,0,13.58-3.56,18.46-8.84
		l8.18,9.63c-6.99,8.04-16.09,12.53-27.17,12.53C1032.03,995.49,1014.89,979.66,1014.89,951.04"/>
	<polygon class="st2" points="1108.53,907.65 1123.82,907.65 1123.82,942.34 1158.77,942.34 1158.77,907.65 1174.07,907.65 
		1174.07,993.9 1158.77,993.9 1158.77,955.66 1123.82,955.66 1123.82,993.9 1108.53,993.9 	"/>
	<polygon class="st2" points="1209.15,907.65 1261.12,907.65 1261.12,920.58 1224.45,920.58 1224.45,942.6 1255.44,942.6 
		1255.44,955.53 1224.45,955.53 1224.45,980.98 1262.43,980.98 1262.43,993.9 1209.15,993.9 	"/>
	<path class="st2" d="M1293.3,907.65h23.08c26.38,0,41.94,14.24,41.94,42.73c0,28.62-15.56,43.52-41.15,43.52h-23.87V907.65z
		 M1315.32,981.51c17.41,0,27.3-9.89,27.3-31.12c0-21.1-9.89-30.33-27.3-30.33h-6.73v61.46H1315.32z"/>
	<path class="st2" d="M1388.52,956.05v-48.4h15.3v49.59c0,18.73,6.99,24.93,17.41,24.93c10.55,0,17.94-6.2,17.94-24.93v-49.59h14.64
		v48.4c0,28.35-12.53,39.43-32.57,39.43C1401.31,995.49,1388.52,984.41,1388.52,956.05"/>
	<polygon class="st2" points="1488.49,907.65 1503.79,907.65 1503.79,980.98 1539.66,980.98 1539.66,993.9 1488.49,993.9 	"/>
	<polygon class="st2" points="1567.89,907.65 1619.85,907.65 1619.85,920.58 1583.18,920.58 1583.18,942.6 1614.18,942.6 
		1614.18,955.53 1583.18,955.53 1583.18,980.98 1621.17,980.98 1621.17,993.9 1567.89,993.9 	"/>
	<path class="st2" d="M1652.03,907.65h23.08c26.38,0,41.94,14.24,41.94,42.73c0,28.62-15.56,43.52-41.15,43.52h-23.87V907.65z
		 M1674.05,981.51c17.41,0,27.3-9.89,27.3-31.12c0-21.1-9.89-30.33-27.3-30.33h-6.73v61.46H1674.05z"/>
	<path class="st2" d="M1782.73,951.04c0-28.22,17.67-44.97,39.43-44.97c10.81,0,19.52,5.14,24.92,10.95l-8.18,9.89
		c-4.48-4.48-9.63-7.52-16.35-7.52c-14.11,0-24.13,11.87-24.13,31.26c0,19.65,9.23,31.52,23.74,31.52c7.65,0,13.58-3.56,18.46-8.84
		l8.18,9.63c-6.99,8.04-16.09,12.53-27.17,12.53C1799.87,995.49,1782.73,979.66,1782.73,951.04"/>
	<path class="st2" d="M1867.53,950.38c0-27.83,15.56-44.31,37.98-44.31c22.55,0,38.11,16.48,38.11,44.31
		c0,27.96-15.56,45.1-38.11,45.1C1883.09,995.49,1867.53,978.34,1867.53,950.38 M1927.8,950.38c0-19.25-8.7-30.99-22.29-30.99
		s-22.29,11.74-22.29,30.99c0,19.39,8.7,31.78,22.29,31.78S1927.8,969.77,1927.8,950.38"/>
	<path class="st2" d="M1974.09,907.65h17.28l15.3,42.2c1.85,5.41,3.69,11.21,5.54,16.88h0.53c1.84-5.67,3.56-11.47,5.41-16.88
		l14.9-42.2h17.41v86.25h-14.11v-39.43c0-8.04,1.19-19.52,1.98-27.43h-0.53l-6.99,20.05l-14.11,38.77h-9.1l-14.24-38.77l-6.86-20.05
		h-0.53c0.66,7.91,1.98,19.39,1.98,27.43v39.43h-13.85V907.65z"/>
	<path class="st2" d="M2085.54,907.65h17.28l15.3,42.2c1.85,5.41,3.69,11.21,5.54,16.88h0.53c1.84-5.67,3.56-11.47,5.41-16.88
		l14.9-42.2h17.41v86.25h-14.11v-39.43c0-8.04,1.19-19.52,1.98-27.43h-0.53l-6.99,20.05l-14.11,38.77h-9.1l-14.24-38.77l-6.86-20.05
		h-0.53c0.66,7.91,1.98,19.39,1.98,27.43v39.43h-13.85V907.65z"/>
	<polygon class="st2" points="2196.98,907.65 2248.94,907.65 2248.94,920.58 2212.28,920.58 2212.28,942.6 2243.27,942.6 
		2243.27,955.53 2212.28,955.53 2212.28,980.98 2250.26,980.98 2250.26,993.9 2196.98,993.9 	"/>
	<path class="st2" d="M2281.13,907.65h29.15c17.94,0,31.65,6.33,31.65,25.58c0,13.19-6.86,21.1-17.15,24.66l20.57,36h-17.14
		l-18.6-33.76h-13.19v33.76h-15.3V907.65z M2308.69,948.01c11.74,0,18.2-5.01,18.2-14.77c0-9.89-6.46-13.32-18.2-13.32h-12.27v28.09
		H2308.69z"/>
	<path class="st2" d="M2367.91,951.04c0-28.22,17.67-44.97,39.43-44.97c10.81,0,19.52,5.14,24.93,10.95l-8.18,9.89
		c-4.48-4.48-9.63-7.52-16.35-7.52c-14.11,0-24.13,11.87-24.13,31.26c0,19.65,9.23,31.52,23.74,31.52c7.65,0,13.58-3.56,18.46-8.84
		l8.18,9.63c-6.99,8.04-16.09,12.53-27.17,12.53C2385.05,995.49,2367.91,979.66,2367.91,951.04"/>
	<rect x="2461.54" y="907.65" class="st2" width="15.3" height="86.25"/>
	<path class="st2" d="M2528.81,907.65h17.94l28.09,86.25h-16.09l-6.73-23.34H2523l-6.73,23.34h-15.56L2528.81,907.65z
		 M2526.56,958.56h22.02l-3.03-10.55c-2.77-9.1-5.28-18.99-7.78-28.49h-0.53c-2.37,9.63-4.88,19.39-7.65,28.49L2526.56,958.56z"/>
	<polygon class="st2" points="2598.71,907.65 2614.01,907.65 2614.01,980.98 2649.88,980.98 2649.88,993.9 2598.71,993.9 	"/>
	<path class="st2" d="M2717.67,907.65h27.56c17.8,0,30.86,5.41,30.86,21.23c0,8.18-4.48,16.09-12,18.73v0.53
		c9.5,2.11,16.49,8.84,16.49,20.44c0,17.27-14.11,25.32-33.1,25.32h-29.8V907.65z M2743.91,943.26c12,0,17.14-4.75,17.14-12.13
		c0-8.44-5.67-11.61-16.88-11.61h-11.21v23.74H2743.91z M2745.89,982.03c12.66,0,19.78-4.61,19.78-14.24
		c0-9.1-6.86-13.06-19.78-13.06h-12.93v27.3H2745.89z"/>
	<path class="st2" d="M2826.47,907.65h17.94l28.09,86.25h-16.09l-6.73-23.34h-29.01l-6.73,23.34h-15.56L2826.47,907.65z
		 M2824.23,958.56h22.02l-3.03-10.55c-2.77-9.1-5.28-18.99-7.78-28.49h-0.53c-2.37,9.63-4.88,19.39-7.65,28.49L2824.23,958.56z"/>
	<path class="st2" d="M2896.37,907.65h15.69l26.91,48.53l8.84,18.33h0.53c-0.66-8.84-1.98-19.78-1.98-29.41v-37.45H2961v86.25
		h-15.69l-26.9-48.53l-8.84-18.33h-0.53c0.66,9.1,1.98,19.52,1.98,29.15v37.72h-14.64V907.65z"/>
	<polygon class="st2" points="2996.08,907.65 3011.38,907.65 3011.38,946.82 3011.77,946.82 3042.5,907.65 3059.51,907.65 
		3033.01,941.28 3064,993.9 3047.12,993.9 3023.77,953.28 3011.38,968.71 3011.38,993.9 2996.08,993.9 	"/>
</g>
</svg>
